<?xml version="1.0" encoding="UTF-8" standalone="no"?>
<!DOCTYPE svg PUBLIC "-//W3C//DTD SVG 1.1//EN"
 "http://www.w3.org/Graphics/SVG/1.1/DTD/svg11.dtd">
<!-- Generated by graphviz version 2.40.1 (20161225.0304)
 -->
<!-- Title: dependencies Pages: 1 -->
<svg width="4980pt" height="284pt"
 viewBox="0.00 0.00 4980.00 284.00" xmlns="http://www.w3.org/2000/svg" xmlns:xlink="http://www.w3.org/1999/xlink">
<g id="graph0" class="graph" transform="scale(1 1) rotate(0) translate(4 280)">
<title>dependencies</title>
<polygon fill="#ffffff" stroke="transparent" points="-4,4 -4,-280 4976,-280 4976,4 -4,4"/>
<text text-anchor="start" x="2465.0091" y="-42.4" font-family="sans-serif" font-weight="bold" font-size="14.00" fill="#000000">Legend</text>
<polygon fill="#ffffb3" stroke="transparent" points="2252,-10 2252,-30 2272,-30 2272,-10 2252,-10"/>
<text text-anchor="start" x="2275.629" y="-15.4" font-family="sans-serif" font-size="14.00" fill="#000000"> &#160;Declarations</text>
<polygon fill="#8dd3c7" stroke="transparent" points="2365,-10 2365,-30 2385,-30 2385,-10 2365,-10"/>
<text text-anchor="start" x="2388.7251" y="-15.4" font-family="sans-serif" font-size="14.00" fill="#000000"> &#160;Module</text>
<polygon fill="#80b1d3" stroke="transparent" points="2451,-10 2451,-30 2471,-30 2471,-10 2451,-10"/>
<text text-anchor="start" x="2474.7812" y="-15.4" font-family="sans-serif" font-size="14.00" fill="#000000"> &#160;Bootstrap</text>
<polygon fill="#fdb462" stroke="transparent" points="2548,-10 2548,-30 2568,-30 2568,-10 2548,-10"/>
<text text-anchor="start" x="2571.6732" y="-15.4" font-family="sans-serif" font-size="14.00" fill="#000000"> &#160;Providers</text>
<polygon fill="#fb8072" stroke="transparent" points="2644,-10 2644,-30 2664,-30 2664,-10 2644,-10"/>
<text text-anchor="start" x="2667.7258" y="-15.4" font-family="sans-serif" font-size="14.00" fill="#000000"> &#160;Exports</text>
<g id="clust1" class="cluster">
<title>cluster_AppModule</title>
<polygon fill="none" stroke="#000000" stroke-dasharray="1,5" points="8,-70 8,-268 4964,-268 4964,-70 8,-70"/>
</g>
<g id="clust2" class="cluster">
<title>cluster_AppModule_declarations</title>
<polygon fill="none" stroke="#000000" points="1637,-78 1637,-130 4956,-130 4956,-78 1637,-78"/>
</g>
<g id="clust25" class="cluster">
<title>cluster_AppModule_imports</title>
<polygon fill="none" stroke="#000000" points="1485,-78 1485,-130 1629,-130 1629,-78 1485,-78"/>
</g>
<g id="clust27" class="cluster">
<title>cluster_AppModule_bootstrap</title>
<polygon fill="none" stroke="#000000" points="2544,-208 2544,-260 2668,-260 2668,-208 2544,-208"/>
</g>
<g id="clust28" class="cluster">
<title>cluster_AppModule_providers</title>
<polygon fill="none" stroke="#000000" points="16,-78 16,-130 1477,-130 1477,-78 16,-78"/>
</g>
<!-- AcuerdoComponent -->
<g id="node1" class="node">
<title>AcuerdoComponent</title>
<polygon fill="#ffffb3" stroke="#000000" points="4947.5297,-122 4818.4703,-122 4818.4703,-86 4947.5297,-86 4947.5297,-122"/>
<text text-anchor="middle" x="4883" y="-99.8" font-family="Times,serif" font-size="14.00" fill="#000000">AcuerdoComponent</text>
</g>
<!-- AppModule -->
<g id="node23" class="node">
<title>AppModule</title>
<polygon fill="#8dd3c7" stroke="#000000" points="2647.6571,-187 2644.6571,-191 2623.6571,-191 2620.6571,-187 2564.3429,-187 2564.3429,-151 2647.6571,-151 2647.6571,-187"/>
<text text-anchor="middle" x="2606" y="-164.8" font-family="Times,serif" font-size="14.00" fill="#000000">AppModule</text>
</g>
<!-- AcuerdoComponent&#45;&gt;AppModule -->
<g id="edge1" class="edge">
<title>AcuerdoComponent&#45;&gt;AppModule</title>
<path fill="none" stroke="#000000" d="M4883,-122.3802C4883,-146.2785 4883,-185 4883,-185 4883,-185 2657.9581,-185 2657.9581,-185"/>
<polygon fill="#000000" stroke="#000000" points="2657.9582,-181.5001 2647.9581,-185 2657.9581,-188.5001 2657.9582,-181.5001"/>
</g>
<!-- AppComponent -->
<g id="node2" class="node">
<title>AppComponent</title>
<polygon fill="#ffffb3" stroke="#000000" points="4800.9399,-122 4695.0601,-122 4695.0601,-86 4800.9399,-86 4800.9399,-122"/>
<text text-anchor="middle" x="4748" y="-99.8" font-family="Times,serif" font-size="14.00" fill="#000000">AppComponent</text>
</g>
<!-- AppComponent&#45;&gt;AppModule -->
<g id="edge2" class="edge">
<title>AppComponent&#45;&gt;AppModule</title>
<path fill="none" stroke="#000000" d="M4748,-122.3228C4748,-145.6602 4748,-183 4748,-183 4748,-183 2657.8268,-183 2657.8268,-183"/>
<polygon fill="#000000" stroke="#000000" points="2657.8269,-179.5001 2647.8268,-183 2657.8268,-186.5001 2657.8269,-179.5001"/>
</g>
<!-- ContenedorComponent -->
<g id="node3" class="node">
<title>ContenedorComponent</title>
<polygon fill="#ffffb3" stroke="#000000" points="4677.1498,-122 4530.8502,-122 4530.8502,-86 4677.1498,-86 4677.1498,-122"/>
<text text-anchor="middle" x="4604" y="-99.8" font-family="Times,serif" font-size="14.00" fill="#000000">ContenedorComponent</text>
</g>
<!-- ContenedorComponent&#45;&gt;AppModule -->
<g id="edge3" class="edge">
<title>ContenedorComponent&#45;&gt;AppModule</title>
<path fill="none" stroke="#000000" d="M4604,-122.2479C4604,-145.0179 4604,-181 4604,-181 4604,-181 2657.7311,-181 2657.7311,-181"/>
<polygon fill="#000000" stroke="#000000" points="2657.7311,-177.5001 2647.7311,-181 2657.731,-184.5001 2657.7311,-177.5001"/>
</g>
<!-- DetalleComponent -->
<g id="node4" class="node">
<title>DetalleComponent</title>
<polygon fill="#ffffb3" stroke="#000000" points="4512.7548,-122 4391.2452,-122 4391.2452,-86 4512.7548,-86 4512.7548,-122"/>
<text text-anchor="middle" x="4452" y="-99.8" font-family="Times,serif" font-size="14.00" fill="#000000">DetalleComponent</text>
</g>
<!-- DetalleComponent&#45;&gt;AppModule -->
<g id="edge4" class="edge">
<title>DetalleComponent&#45;&gt;AppModule</title>
<path fill="none" stroke="#000000" d="M4452,-122.2921C4452,-144.2057 4452,-178 4452,-178 4452,-178 2658.0247,-178 2658.0247,-178"/>
<polygon fill="#000000" stroke="#000000" points="2658.0247,-174.5001 2648.0247,-178 2658.0247,-181.5001 2658.0247,-174.5001"/>
</g>
<!-- DetallesComponent -->
<g id="node5" class="node">
<title>DetallesComponent</title>
<polygon fill="#ffffb3" stroke="#000000" points="4373.6994,-122 4246.3006,-122 4246.3006,-86 4373.6994,-86 4373.6994,-122"/>
<text text-anchor="middle" x="4310" y="-99.8" font-family="Times,serif" font-size="14.00" fill="#000000">DetallesComponent</text>
</g>
<!-- DetallesComponent&#45;&gt;AppModule -->
<g id="edge5" class="edge">
<title>DetallesComponent&#45;&gt;AppModule</title>
<path fill="none" stroke="#000000" d="M4310,-122.1686C4310,-143.498 4310,-176 4310,-176 4310,-176 2657.6984,-176 2657.6984,-176"/>
<polygon fill="#000000" stroke="#000000" points="2657.6985,-172.5001 2647.6984,-176 2657.6984,-179.5001 2657.6985,-172.5001"/>
</g>
<!-- FeedComponent -->
<g id="node6" class="node">
<title>FeedComponent</title>
<polygon fill="#ffffb3" stroke="#000000" points="4228.0452,-122 4119.9548,-122 4119.9548,-86 4228.0452,-86 4228.0452,-122"/>
<text text-anchor="middle" x="4174" y="-99.8" font-family="Times,serif" font-size="14.00" fill="#000000">FeedComponent</text>
</g>
<!-- FeedComponent&#45;&gt;AppModule -->
<g id="edge6" class="edge">
<title>FeedComponent&#45;&gt;AppModule</title>
<path fill="none" stroke="#000000" d="M4174,-122.0267C4174,-142.7672 4174,-174 4174,-174 4174,-174 2657.9402,-174 2657.9402,-174"/>
<polygon fill="#000000" stroke="#000000" points="2657.9402,-170.5001 2647.9402,-174 2657.9402,-177.5001 2657.9402,-170.5001"/>
</g>
<!-- FeedFragmentComponent -->
<g id="node7" class="node">
<title>FeedFragmentComponent</title>
<polygon fill="#ffffb3" stroke="#000000" points="4102.1979,-122 3939.8021,-122 3939.8021,-86 4102.1979,-86 4102.1979,-122"/>
<text text-anchor="middle" x="4021" y="-99.8" font-family="Times,serif" font-size="14.00" fill="#000000">FeedFragmentComponent</text>
</g>
<!-- FeedFragmentComponent&#45;&gt;AppModule -->
<g id="edge7" class="edge">
<title>FeedFragmentComponent&#45;&gt;AppModule</title>
<path fill="none" stroke="#000000" d="M4021,-122.2228C4021,-142.3652 4021,-172 4021,-172 4021,-172 2657.9642,-172 2657.9642,-172"/>
<polygon fill="#000000" stroke="#000000" points="2657.9643,-168.5001 2647.9642,-172 2657.9642,-175.5001 2657.9643,-168.5001"/>
</g>
<!-- FooterComponent -->
<g id="node8" class="node">
<title>FooterComponent</title>
<polygon fill="#ffffb3" stroke="#000000" points="3921.8809,-122 3804.1191,-122 3804.1191,-86 3921.8809,-86 3921.8809,-122"/>
<text text-anchor="middle" x="3863" y="-99.8" font-family="Times,serif" font-size="14.00" fill="#000000">FooterComponent</text>
</g>
<!-- FooterComponent&#45;&gt;AppModule -->
<g id="edge8" class="edge">
<title>FooterComponent&#45;&gt;AppModule</title>
<path fill="none" stroke="#000000" d="M3863,-122.1061C3863,-141.3391 3863,-169 3863,-169 3863,-169 2657.8226,-169 2657.8226,-169"/>
<polygon fill="#000000" stroke="#000000" points="2657.8227,-165.5001 2647.8226,-169 2657.8226,-172.5001 2657.8227,-165.5001"/>
</g>
<!-- GaleriaComponent -->
<g id="node9" class="node">
<title>GaleriaComponent</title>
<polygon fill="#ffffb3" stroke="#000000" points="3786.0255,-122 3663.9745,-122 3663.9745,-86 3786.0255,-86 3786.0255,-122"/>
<text text-anchor="middle" x="3725" y="-99.8" font-family="Times,serif" font-size="14.00" fill="#000000">GaleriaComponent</text>
</g>
<!-- GaleriaComponent&#45;&gt;AppModule -->
<g id="edge9" class="edge">
<title>GaleriaComponent&#45;&gt;AppModule</title>
<path fill="none" stroke="#000000" d="M3725,-122.2222C3725,-140.8285 3725,-167 3725,-167 3725,-167 2657.8238,-167 2657.8238,-167"/>
<polygon fill="#000000" stroke="#000000" points="2657.8239,-163.5001 2647.8238,-167 2657.8238,-170.5001 2657.8239,-163.5001"/>
</g>
<!-- GaleriaFragmentComponent -->
<g id="node10" class="node">
<title>GaleriaFragmentComponent</title>
<polygon fill="#ffffb3" stroke="#000000" points="3646.1783,-122 3469.8217,-122 3469.8217,-86 3646.1783,-86 3646.1783,-122"/>
<text text-anchor="middle" x="3558" y="-99.8" font-family="Times,serif" font-size="14.00" fill="#000000">GaleriaFragmentComponent</text>
</g>
<!-- GaleriaFragmentComponent&#45;&gt;AppModule -->
<g id="edge10" class="edge">
<title>GaleriaFragmentComponent&#45;&gt;AppModule</title>
<path fill="none" stroke="#000000" d="M3558,-122.302C3558,-140.2699 3558,-165 3558,-165 3558,-165 2657.826,-165 2657.826,-165"/>
<polygon fill="#000000" stroke="#000000" points="2657.826,-161.5001 2647.826,-165 2657.826,-168.5001 2657.826,-161.5001"/>
</g>
<!-- LoginComponent -->
<g id="node11" class="node">
<title>LoginComponent</title>
<polygon fill="#ffffb3" stroke="#000000" points="3452.2758,-122 3337.7242,-122 3337.7242,-86 3452.2758,-86 3452.2758,-122"/>
<text text-anchor="middle" x="3395" y="-99.8" font-family="Times,serif" font-size="14.00" fill="#000000">LoginComponent</text>
</g>
<!-- LoginComponent&#45;&gt;AppModule -->
<g id="edge11" class="edge">
<title>LoginComponent&#45;&gt;AppModule</title>
<path fill="none" stroke="#000000" d="M3395,-122.0225C3395,-139.3734 3395,-163 3395,-163 3395,-163 2657.863,-163 2657.863,-163"/>
<polygon fill="#000000" stroke="#000000" points="2657.863,-159.5001 2647.863,-163 2657.863,-166.5001 2657.863,-159.5001"/>
</g>
<!-- MenubarComponent -->
<g id="node12" class="node">
<title>MenubarComponent</title>
<polygon fill="#ffffb3" stroke="#000000" points="3319.8669,-122 3188.1331,-122 3188.1331,-86 3319.8669,-86 3319.8669,-122"/>
<text text-anchor="middle" x="3254" y="-99.8" font-family="Times,serif" font-size="14.00" fill="#000000">MenubarComponent</text>
</g>
<!-- MenubarComponent&#45;&gt;AppModule -->
<g id="edge12" class="edge">
<title>MenubarComponent&#45;&gt;AppModule</title>
<path fill="none" stroke="#000000" d="M3254,-122.027C3254,-138.3976 3254,-160 3254,-160 3254,-160 2658.0178,-160 2658.0178,-160"/>
<polygon fill="#000000" stroke="#000000" points="2658.0178,-156.5001 2648.0178,-160 2658.0178,-163.5001 2658.0178,-156.5001"/>
</g>
<!-- MyHopComponent -->
<g id="node13" class="node">
<title>MyHopComponent</title>
<polygon fill="#ffffb3" stroke="#000000" points="3170.3837,-122 3045.6163,-122 3045.6163,-86 3170.3837,-86 3170.3837,-122"/>
<text text-anchor="middle" x="3108" y="-99.8" font-family="Times,serif" font-size="14.00" fill="#000000">MyHopComponent</text>
</g>
<!-- MyHopComponent&#45;&gt;AppModule -->
<g id="edge13" class="edge">
<title>MyHopComponent&#45;&gt;AppModule</title>
<path fill="none" stroke="#000000" d="M3108,-122.2819C3108,-137.9478 3108,-158 3108,-158 3108,-158 2657.9368,-158 2657.9368,-158"/>
<polygon fill="#000000" stroke="#000000" points="2657.9368,-154.5001 2647.9368,-158 2657.9368,-161.5001 2657.9368,-154.5001"/>
</g>
<!-- MyhopComponent -->
<g id="node14" class="node">
<title>MyhopComponent</title>
<polygon fill="#ffffb3" stroke="#000000" points="3027.7772,-122 2906.2228,-122 2906.2228,-86 3027.7772,-86 3027.7772,-122"/>
<text text-anchor="middle" x="2967" y="-99.8" font-family="Times,serif" font-size="14.00" fill="#000000">MyhopComponent</text>
</g>
<!-- MyhopComponent&#45;&gt;AppModule -->
<g id="edge14" class="edge">
<title>MyhopComponent&#45;&gt;AppModule</title>
<path fill="none" stroke="#000000" d="M2967,-122.1871C2967,-137.1824 2967,-156 2967,-156 2967,-156 2657.764,-156 2657.764,-156"/>
<polygon fill="#000000" stroke="#000000" points="2657.764,-152.5001 2647.764,-156 2657.7639,-159.5001 2657.764,-152.5001"/>
</g>
<!-- NewhopComponent -->
<g id="node15" class="node">
<title>NewhopComponent</title>
<polygon fill="#ffffb3" stroke="#000000" points="2888.2604,-122 2759.7396,-122 2759.7396,-86 2888.2604,-86 2888.2604,-122"/>
<text text-anchor="middle" x="2824" y="-99.8" font-family="Times,serif" font-size="14.00" fill="#000000">NewhopComponent</text>
</g>
<!-- NewhopComponent&#45;&gt;AppModule -->
<g id="edge15" class="edge">
<title>NewhopComponent&#45;&gt;AppModule</title>
<path fill="none" stroke="#000000" d="M2824,-122.0511C2824,-136.373 2824,-154 2824,-154 2824,-154 2657.7747,-154 2657.7747,-154"/>
<polygon fill="#000000" stroke="#000000" points="2657.7747,-150.5001 2647.7747,-154 2657.7746,-157.5001 2657.7747,-150.5001"/>
</g>
<!-- NormalComponent -->
<g id="node16" class="node">
<title>NormalComponent</title>
<polygon fill="#ffffb3" stroke="#000000" points="2742.0954,-122 2617.9046,-122 2617.9046,-86 2742.0954,-86 2742.0954,-122"/>
<text text-anchor="middle" x="2680" y="-99.8" font-family="Times,serif" font-size="14.00" fill="#000000">NormalComponent</text>
</g>
<!-- NormalComponent&#45;&gt;AppModule -->
<g id="edge16" class="edge">
<title>NormalComponent&#45;&gt;AppModule</title>
<path fill="none" stroke="#000000" d="M2632.8903,-122.1061C2632.8903,-122.1061 2632.8903,-140.991 2632.8903,-140.991"/>
<polygon fill="#000000" stroke="#000000" points="2629.3903,-140.9909 2632.8903,-150.991 2636.3903,-140.991 2629.3903,-140.9909"/>
</g>
<!-- OpcionesComponent -->
<g id="node17" class="node">
<title>OpcionesComponent</title>
<polygon fill="#ffffb3" stroke="#000000" points="2600.2036,-122 2465.7964,-122 2465.7964,-86 2600.2036,-86 2600.2036,-122"/>
<text text-anchor="middle" x="2533" y="-99.8" font-family="Times,serif" font-size="14.00" fill="#000000">OpcionesComponent</text>
</g>
<!-- OpcionesComponent&#45;&gt;AppModule -->
<g id="edge17" class="edge">
<title>OpcionesComponent&#45;&gt;AppModule</title>
<path fill="none" stroke="#000000" d="M2582.1368,-122.1061C2582.1368,-122.1061 2582.1368,-140.991 2582.1368,-140.991"/>
<polygon fill="#000000" stroke="#000000" points="2578.6368,-140.9909 2582.1368,-150.991 2585.6368,-140.991 2578.6368,-140.9909"/>
</g>
<!-- PricingComponent -->
<g id="node18" class="node">
<title>PricingComponent</title>
<polygon fill="#ffffb3" stroke="#000000" points="2447.7716,-122 2326.2284,-122 2326.2284,-86 2447.7716,-86 2447.7716,-122"/>
<text text-anchor="middle" x="2387" y="-99.8" font-family="Times,serif" font-size="14.00" fill="#000000">PricingComponent</text>
</g>
<!-- PricingComponent&#45;&gt;AppModule -->
<g id="edge18" class="edge">
<title>PricingComponent&#45;&gt;AppModule</title>
<path fill="none" stroke="#000000" d="M2387,-122.0511C2387,-136.373 2387,-154 2387,-154 2387,-154 2554.2923,-154 2554.2923,-154"/>
<polygon fill="#000000" stroke="#000000" points="2554.2923,-157.5001 2564.2923,-154 2554.2923,-150.5001 2554.2923,-157.5001"/>
</g>
<!-- PromocionComponent -->
<g id="node19" class="node">
<title>PromocionComponent</title>
<polygon fill="#ffffb3" stroke="#000000" points="2308.2716,-122 2165.7284,-122 2165.7284,-86 2308.2716,-86 2308.2716,-122"/>
<text text-anchor="middle" x="2237" y="-99.8" font-family="Times,serif" font-size="14.00" fill="#000000">PromocionComponent</text>
</g>
<!-- PromocionComponent&#45;&gt;AppModule -->
<g id="edge19" class="edge">
<title>PromocionComponent&#45;&gt;AppModule</title>
<path fill="none" stroke="#000000" d="M2237,-122.1871C2237,-137.1824 2237,-156 2237,-156 2237,-156 2554.0303,-156 2554.0303,-156"/>
<polygon fill="#000000" stroke="#000000" points="2554.0303,-159.5001 2564.0303,-156 2554.0302,-152.5001 2554.0303,-159.5001"/>
</g>
<!-- PromocionesComponent -->
<g id="node20" class="node">
<title>PromocionesComponent</title>
<polygon fill="#ffffb3" stroke="#000000" points="2147.4312,-122 1992.5688,-122 1992.5688,-86 2147.4312,-86 2147.4312,-122"/>
<text text-anchor="middle" x="2070" y="-99.8" font-family="Times,serif" font-size="14.00" fill="#000000">PromocionesComponent</text>
</g>
<!-- PromocionesComponent&#45;&gt;AppModule -->
<g id="edge20" class="edge">
<title>PromocionesComponent&#45;&gt;AppModule</title>
<path fill="none" stroke="#000000" d="M2070,-122.2819C2070,-137.9478 2070,-158 2070,-158 2070,-158 2553.941,-158 2553.941,-158"/>
<polygon fill="#000000" stroke="#000000" points="2553.941,-161.5001 2563.941,-158 2553.9409,-154.5001 2553.941,-161.5001"/>
</g>
<!-- ReservacionComponent -->
<g id="node21" class="node">
<title>ReservacionComponent</title>
<polygon fill="#ffffb3" stroke="#000000" points="1975.024,-122 1824.976,-122 1824.976,-86 1975.024,-86 1975.024,-122"/>
<text text-anchor="middle" x="1900" y="-99.8" font-family="Times,serif" font-size="14.00" fill="#000000">ReservacionComponent</text>
</g>
<!-- ReservacionComponent&#45;&gt;AppModule -->
<g id="edge21" class="edge">
<title>ReservacionComponent&#45;&gt;AppModule</title>
<path fill="none" stroke="#000000" d="M1900,-122.027C1900,-138.3976 1900,-160 1900,-160 1900,-160 2554.2119,-160 2554.2119,-160"/>
<polygon fill="#000000" stroke="#000000" points="2554.2119,-163.5001 2564.2119,-160 2554.2118,-156.5001 2554.2119,-163.5001"/>
</g>
<!-- ReservacionesComponent -->
<g id="node22" class="node">
<title>ReservacionesComponent</title>
<polygon fill="#ffffb3" stroke="#000000" points="1807.1825,-122 1644.8175,-122 1644.8175,-86 1807.1825,-86 1807.1825,-122"/>
<text text-anchor="middle" x="1726" y="-99.8" font-family="Times,serif" font-size="14.00" fill="#000000">ReservacionesComponent</text>
</g>
<!-- ReservacionesComponent&#45;&gt;AppModule -->
<g id="edge22" class="edge">
<title>ReservacionesComponent&#45;&gt;AppModule</title>
<path fill="none" stroke="#000000" d="M1726,-122.0225C1726,-139.3734 1726,-163 1726,-163 1726,-163 2554.1478,-163 2554.1478,-163"/>
<polygon fill="#000000" stroke="#000000" points="2554.1478,-166.5001 2564.1478,-163 2554.1477,-159.5001 2554.1478,-166.5001"/>
</g>
<!-- AppComponent  -->
<g id="node25" class="node">
<title>AppComponent </title>
<polygon fill="#80b1d3" stroke="#000000" points="2660.439,-252 2551.561,-252 2551.561,-216 2660.439,-216 2660.439,-252"/>
<text text-anchor="middle" x="2606" y="-229.8" font-family="Times,serif" font-size="14.00" fill="#000000">AppComponent </text>
</g>
<!-- AppModule&#45;&gt;AppComponent  -->
<g id="edge24" class="edge">
<title>AppModule&#45;&gt;AppComponent </title>
<path fill="none" stroke="#000000" stroke-dasharray="1,5" d="M2606,-187.1061C2606,-187.1061 2606,-205.991 2606,-205.991"/>
<polygon fill="#000000" stroke="#000000" points="2602.5001,-205.9909 2606,-215.991 2609.5001,-205.991 2602.5001,-205.9909"/>
</g>
<!-- AppRoutingModule -->
<g id="node24" class="node">
<title>AppRoutingModule</title>
<polygon fill="#8dd3c7" stroke="#000000" points="1621.2744,-122 1618.2744,-126 1597.2744,-126 1594.2744,-122 1492.7256,-122 1492.7256,-86 1621.2744,-86 1621.2744,-122"/>
<text text-anchor="middle" x="1557" y="-99.8" font-family="Times,serif" font-size="14.00" fill="#000000">AppRoutingModule</text>
</g>
<!-- AppRoutingModule&#45;&gt;AppModule -->
<g id="edge23" class="edge">
<title>AppRoutingModule&#45;&gt;AppModule</title>
<path fill="none" stroke="#000000" d="M1557,-122.302C1557,-140.2699 1557,-165 1557,-165 1557,-165 2554.2306,-165 2554.2306,-165"/>
<polygon fill="#000000" stroke="#000000" points="2554.2307,-168.5001 2564.2306,-165 2554.2306,-161.5001 2554.2307,-168.5001"/>
</g>
<!-- AuthService -->
<g id="node26" class="node">
<title>AuthService</title>
<ellipse fill="#fdb462" stroke="#000000" cx="1410" cy="-104" rx="59.1083" ry="18"/>
<text text-anchor="middle" x="1410" y="-99.8" font-family="Times,serif" font-size="14.00" fill="#000000">AuthService</text>
</g>
<!-- AuthService&#45;&gt;AppModule -->
<g id="edge25" class="edge">
<title>AuthService&#45;&gt;AppModule</title>
<path fill="none" stroke="#000000" d="M1410,-122.2222C1410,-140.8285 1410,-167 1410,-167 1410,-167 2554.135,-167 2554.135,-167"/>
<polygon fill="#000000" stroke="#000000" points="2554.135,-170.5001 2564.135,-167 2554.135,-163.5001 2554.135,-170.5001"/>
</g>
<!-- DialogsService -->
<g id="node27" class="node">
<title>DialogsService</title>
<ellipse fill="#fdb462" stroke="#000000" cx="1263" cy="-104" rx="70.0596" ry="18"/>
<text text-anchor="middle" x="1263" y="-99.8" font-family="Times,serif" font-size="14.00" fill="#000000">DialogsService</text>
</g>
<!-- DialogsService&#45;&gt;AppModule -->
<g id="edge26" class="edge">
<title>DialogsService&#45;&gt;AppModule</title>
<path fill="none" stroke="#000000" d="M1263,-122.1061C1263,-141.3391 1263,-169 1263,-169 1263,-169 2554.334,-169 2554.334,-169"/>
<polygon fill="#000000" stroke="#000000" points="2554.334,-172.5001 2564.334,-169 2554.334,-165.5001 2554.334,-172.5001"/>
</g>
<!-- MunicipiosService -->
<g id="node28" class="node">
<title>MunicipiosService</title>
<ellipse fill="#fdb462" stroke="#000000" cx="1091" cy="-104" rx="83.9663" ry="18"/>
<text text-anchor="middle" x="1091" y="-99.8" font-family="Times,serif" font-size="14.00" fill="#000000">MunicipiosService</text>
</g>
<!-- MunicipiosService&#45;&gt;AppModule -->
<g id="edge27" class="edge">
<title>MunicipiosService&#45;&gt;AppModule</title>
<path fill="none" stroke="#000000" d="M1091,-122.2228C1091,-142.3652 1091,-172 1091,-172 1091,-172 2554.2962,-172 2554.2962,-172"/>
<polygon fill="#000000" stroke="#000000" points="2554.2963,-175.5001 2564.2962,-172 2554.2962,-168.5001 2554.2963,-175.5001"/>
</g>
<!-- MyhopService -->
<g id="node29" class="node">
<title>MyhopService</title>
<ellipse fill="#fdb462" stroke="#000000" cx="921" cy="-104" rx="67.7799" ry="18"/>
<text text-anchor="middle" x="921" y="-99.8" font-family="Times,serif" font-size="14.00" fill="#000000">MyhopService</text>
</g>
<!-- MyhopService&#45;&gt;AppModule -->
<g id="edge28" class="edge">
<title>MyhopService&#45;&gt;AppModule</title>
<path fill="none" stroke="#000000" d="M921,-122.0267C921,-142.7672 921,-174 921,-174 921,-174 2553.9277,-174 2553.9277,-174"/>
<polygon fill="#000000" stroke="#000000" points="2553.9277,-177.5001 2563.9277,-174 2553.9277,-170.5001 2553.9277,-177.5001"/>
</g>
<!-- PaymentService -->
<g id="node30" class="node">
<title>PaymentService</title>
<ellipse fill="#fdb462" stroke="#000000" cx="761" cy="-104" rx="73.5734" ry="18"/>
<text text-anchor="middle" x="761" y="-99.8" font-family="Times,serif" font-size="14.00" fill="#000000">PaymentService</text>
</g>
<!-- PaymentService&#45;&gt;AppModule -->
<g id="edge29" class="edge">
<title>PaymentService&#45;&gt;AppModule</title>
<path fill="none" stroke="#000000" d="M761,-122.1686C761,-143.498 761,-176 761,-176 761,-176 2553.9981,-176 2553.9981,-176"/>
<polygon fill="#000000" stroke="#000000" points="2553.9981,-179.5001 2563.9981,-176 2553.998,-172.5001 2553.9981,-179.5001"/>
</g>
<!-- PlanService -->
<g id="node31" class="node">
<title>PlanService</title>
<ellipse fill="#fdb462" stroke="#000000" cx="612" cy="-104" rx="57.3185" ry="18"/>
<text text-anchor="middle" x="612" y="-99.8" font-family="Times,serif" font-size="14.00" fill="#000000">PlanService</text>
</g>
<!-- PlanService&#45;&gt;AppModule -->
<g id="edge30" class="edge">
<title>PlanService&#45;&gt;AppModule</title>
<path fill="none" stroke="#000000" d="M612,-122.2921C612,-144.2057 612,-178 612,-178 612,-178 2553.8924,-178 2553.8924,-178"/>
<polygon fill="#000000" stroke="#000000" points="2553.8924,-181.5001 2563.8924,-178 2553.8924,-174.5001 2553.8924,-181.5001"/>
</g>
<!-- ReservacionesService -->
<g id="node32" class="node">
<title>ReservacionesService</title>
<ellipse fill="#fdb462" stroke="#000000" cx="441" cy="-104" rx="95.5221" ry="18"/>
<text text-anchor="middle" x="441" y="-99.8" font-family="Times,serif" font-size="14.00" fill="#000000">ReservacionesService</text>
</g>
<!-- ReservacionesService&#45;&gt;AppModule -->
<g id="edge31" class="edge">
<title>ReservacionesService&#45;&gt;AppModule</title>
<path fill="none" stroke="#000000" d="M441,-122.2479C441,-145.0179 441,-181 441,-181 441,-181 2554.2056,-181 2554.2056,-181"/>
<polygon fill="#000000" stroke="#000000" points="2554.2056,-184.5001 2564.2056,-181 2554.2055,-177.5001 2554.2056,-184.5001"/>
</g>
<!-- ResponsiveService -->
<g id="node33" class="node">
<title>ResponsiveService</title>
<ellipse fill="#fdb462" stroke="#000000" cx="243" cy="-104" rx="84.5285" ry="18"/>
<text text-anchor="middle" x="243" y="-99.8" font-family="Times,serif" font-size="14.00" fill="#000000">ResponsiveService</text>
</g>
<!-- ResponsiveService&#45;&gt;AppModule -->
<g id="edge32" class="edge">
<title>ResponsiveService&#45;&gt;AppModule</title>
<path fill="none" stroke="#000000" d="M243,-122.3228C243,-145.6602 243,-183 243,-183 243,-183 2554.2346,-183 2554.2346,-183"/>
<polygon fill="#000000" stroke="#000000" points="2554.2346,-186.5001 2564.2346,-183 2554.2346,-179.5001 2554.2346,-186.5001"/>
</g>
<!-- UserService -->
<g id="node34" class="node">
<title>UserService</title>
<ellipse fill="#fdb462" stroke="#000000" cx="82" cy="-104" rx="58.4415" ry="18"/>
<text text-anchor="middle" x="82" y="-99.8" font-family="Times,serif" font-size="14.00" fill="#000000">UserService</text>
</g>
<!-- UserService&#45;&gt;AppModule -->
<g id="edge33" class="edge">
<title>UserService&#45;&gt;AppModule</title>
<path fill="none" stroke="#000000" d="M82,-122.3802C82,-146.2785 82,-185 82,-185 82,-185 2554.2971,-185 2554.2971,-185"/>
<polygon fill="#000000" stroke="#000000" points="2554.2971,-188.5001 2564.2971,-185 2554.2971,-181.5001 2554.2971,-188.5001"/>
</g>
</g>
</svg>
